<svg width="24" height="24" viewBox="0 0 24 24" fill="none" xmlns="http://www.w3.org/2000/svg">
<path d="M3.30077 4.59484L2.501 3.99571V4.99501V4.99502V4.99503V4.99505V4.99506V4.99507V4.99508V4.99509V4.99511V4.99512V4.99513V4.99514V4.99515V4.99517V4.99518V4.99519V4.9952V4.99521V4.99523V4.99524V4.99525V4.99526V4.99527V4.99529V4.9953V4.99531V4.99532V4.99534V4.99535V4.99536V4.99537V4.99538V4.9954V4.99541V4.99542V4.99543V4.99545V4.99546V4.99547V4.99548V4.9955V4.99551V4.99552V4.99553V4.99555V4.99556V4.99557V4.99558V4.9956V4.99561V4.99562V4.99563V4.99565V4.99566V4.99567V4.99569V4.9957V4.99571V4.99572V4.99574V4.99575V4.99576V4.99577V4.99579V4.9958V4.99581V4.99583V4.99584V4.99585V4.99586V4.99588V4.99589V4.9959V4.99592V4.99593V4.99594V4.99595V4.99597V4.99598V4.99599V4.99601V4.99602V4.99603V4.99605V4.99606V4.99607V4.99608V4.9961V4.99611V4.99612V4.99614V4.99615V4.99616V4.99618V4.99619V4.9962V4.99622V4.99623V4.99624V4.99625V4.99627V4.99628V4.99629V4.99631V4.99632V4.99633V4.99635V4.99636V4.99637V4.99639V4.9964V4.99641V4.99643V4.99644V4.99645V4.99646V4.99648V4.99649V4.9965V4.99652V4.99653V4.99654V4.99656V4.99657V4.99658V4.9966V4.99661V4.99662V4.99664V4.99665V4.99666V4.99668V4.99669V4.9967V4.99672V4.99673V4.99674V4.99676V4.99677V4.99678V4.99679V4.99681V4.99682V4.99683V4.99685V4.99686V4.99687V4.99689V4.9969V4.99691V4.99693V4.99694V4.99695V4.99697V4.99698V4.99699V4.997V4.99702V4.99703V4.99704V4.99706V4.99707V4.99708V4.9971V4.99711V4.99712V4.99714V4.99715V4.99716V4.99717V4.99719V4.9972V4.99721V4.99723V4.99724V4.99725V4.99727V4.99728V4.99729V4.9973V4.99732V4.99733V4.99734V4.99736V4.99737V4.99738V4.9974V4.99741V4.99742V4.99743V4.99745V4.99746V4.99747V4.99749V4.9975V4.99751V4.99752V4.99754V4.99755V4.99756V4.99757V4.99759V4.9976V4.99761V4.99763V4.99764V4.99765V4.99766V4.99768V4.99769V4.9977V4.99771V4.99773V4.99774V4.99775V4.99776V4.99778V4.99779V4.9978V4.99781V4.99783V4.99784V4.99785V4.99786V4.99788V4.99789V4.9979V4.99791V4.99792V4.99794V4.99795V4.99796V4.99797V4.99799V4.998V4.99801V4.99802V4.99803V4.99805V4.99806V4.99807V4.99808V4.9981V4.99811V4.99812V4.99813V4.99814V4.99816V4.99817V4.99818V4.99819V4.9982V4.99821V4.99823V4.99824V4.99825V4.99826V4.99827V4.99828V4.9983V4.99831V4.99832V4.99833V4.99834V4.99835V4.99837V4.99838V4.99839V4.9984V4.99841V4.99842V4.99843V4.99845V4.99846V4.99847V4.99848V4.99849V4.9985V4.99851V4.99852V4.99854V4.99855V4.99856V4.99857V4.99858V4.99859V4.9986V4.99861V4.99862V4.99863V4.99865V4.99866V4.99867V4.99868V4.99869V4.9987V4.99871V4.99872V4.99873V4.99874V4.99875V4.99876V4.99877V4.99878V4.99879V4.9988V4.99882V4.99883V4.99884V4.99885V4.99886V4.99887V4.99888V4.99889V4.9989V4.99891V4.99892V4.99893V4.99894V4.99895V4.99896V4.99897V4.99898V4.99899V4.999V4.99901V4.99902V4.99902V4.99903V4.99904V4.99905V4.99906V4.99907V4.99908V4.99909V4.9991V4.99911V4.99912V4.99913V4.99914V4.99915V4.99916V4.99917V4.99917V4.99918V4.99919V4.9992V4.99921V4.99922V4.99923V4.99924V4.99925V4.99925V4.99926V4.99927V4.99928V4.99929V4.9993V4.99931V4.99931V4.99932V4.99933V4.99934V4.99935V4.99936V4.99936V4.99937V4.99938V4.99939V4.9994V4.9994V4.99941V4.99942V4.99943V4.99944V4.99944V4.99945V4.99946V4.99947V4.99947V4.99948V4.99949V4.9995V4.9995V4.99951V4.99952V4.99953V4.99953V4.99954V4.99955V4.99955V4.99956V4.99957V4.99958V4.99958V4.99959V4.9996V4.9996V4.99961V4.99962V4.99962V4.99963V4.99964V4.99964V4.99965V4.99965V4.99966V4.99967V4.99967V4.99968V4.99969V4.99969V4.9997V4.9997V4.99971V4.99972V4.99972V4.99973V4.99973V4.99974V4.99974V4.99975V4.99975V4.99976V4.99977V4.99977V4.99978V4.99978V4.99979V4.99979V4.9998V4.9998V4.99981V4.99981V4.99982V4.99982V4.99983V4.99983V4.99984V4.99984V4.99984V4.99985V4.99985V4.99986V4.99986V4.99987V4.99987V4.99987V4.99988V4.99988V4.99989V4.99989V4.99989V4.9999V4.9999V4.99991V4.99991V4.99992V4.99993V4.99993V4.99994V4.99994V4.99995V4.99996V4.99996V4.99997V4.99997V4.99998V4.99998V4.99998V4.99999V4.99999V5V5V5V5.00001V8.00001C2.501 8.27619 2.27753 8.50001 2.001 8.50001C1.72447 8.50001 1.501 8.27619 1.501 8.00001V5.00182C1.51906 2.57041 3.50989 0.494631 5.99892 0.500012H6H23C23.2765 0.500012 23.5 0.723828 23.5 1.00001C23.5 1.27619 23.2765 1.50001 23 1.50001H6C4.96721 1.50001 4.04988 1.95682 3.41248 2.66028L3.10868 2.99557L3.41203 3.33125C4.06356 4.05221 4.99352 4.50001 6 4.50001H21C22.3779 4.50001 23.5 5.62215 23.5 7.00001V17C23.5 18.3779 22.3779 19.5 21 19.5H15.5C15.2235 19.5 15 19.2762 15 19C15 18.7238 15.2235 18.5 15.5 18.5H21C21.8285 18.5 22.5 17.8268 22.5 17V7.00001C22.5 6.17319 21.8285 5.50001 21 5.50001H6C5.01559 5.50001 4.07011 5.17117 3.30077 4.59484ZM18.5 11C19.0519 11 19.5 11.4482 19.5 12C19.5 12.5519 19.0519 13 18.5 13C17.9481 13 17.5 12.5519 17.5 12C17.5 11.4482 17.9481 11 18.5 11ZM0.5 22.5C0.5 21.9482 0.948143 21.5 1.5 21.5C2.05186 21.5 2.5 21.9482 2.5 22.5C2.5 23.0519 2.05186 23.5 1.5 23.5C0.948143 23.5 0.5 23.0519 0.5 22.5ZM0.5 17C0.5 16.7238 0.723468 16.5 1 16.5C4.5829 16.5 7.5 19.4162 7.5 23C7.5 23.2762 7.27653 23.5 7 23.5C6.72347 23.5 6.5 23.2762 6.5 23C6.5 19.9669 4.03314 17.5 1 17.5C0.723468 17.5 0.5 17.2762 0.5 17ZM0.5 12C0.5 11.7238 0.723468 11.5 1 11.5C7.34086 11.5 12.5 16.6592 12.5 23C12.5 23.2762 12.2765 23.5 12 23.5C11.7235 23.5 11.5 23.2762 11.5 23C11.5 17.2099 6.79014 12.5 1 12.5C0.723468 12.5 0.5 12.2762 0.5 12Z" stroke="white"/>
</svg>
