<svg width="16" height="17" viewBox="0 0 16 17" fill="none" xmlns="http://www.w3.org/2000/svg">
<path d="M7.9987 15.3148C4.3168 15.3148 1.33203 12.33 1.33203 8.64811C1.33203 4.96621 4.3168 1.98145 7.9987 1.98145C11.6806 1.98145 14.6654 4.96621 14.6654 8.64811C14.6654 12.33 11.6806 15.3148 7.9987 15.3148ZM7.9987 13.9814C10.9442 13.9814 13.332 11.5936 13.332 8.64811C13.332 5.70259 10.9442 3.31478 7.9987 3.31478C5.05318 3.31478 2.66536 5.70259 2.66536 8.64811C2.66536 11.5936 5.05318 13.9814 7.9987 13.9814ZM8.66536 8.64811H11.332V9.98145H7.33203V5.31478H8.66536V8.64811Z" fill="#7C7D7F"/>
</svg>
