<svg width="21" height="21" viewBox="0 0 21 21" fill="none" xmlns="http://www.w3.org/2000/svg">
<path d="M6.33317 5.64876V3.14876C6.33317 2.68853 6.70627 2.31543 7.1665 2.31543H17.1665C17.6267 2.31543 17.9998 2.68853 17.9998 3.14876V14.8154C17.9998 15.2757 17.6267 15.6488 17.1665 15.6488H14.6665V18.148C14.6665 18.6087 14.2916 18.9821 13.8275 18.9821H3.83888C3.37549 18.9821 3 18.6116 3 18.148L3.00217 6.48282C3.00225 6.02219 3.3772 5.64876 3.84118 5.64876H6.33317ZM4.66868 7.31543L4.66682 17.3154H12.9998V7.31543H4.66868ZM7.99983 5.64876H14.6665V13.9821H16.3332V3.9821H7.99983V5.64876Z" fill="white"/>
</svg>
