<svg width="24" height="25" viewBox="0 0 24 25" fill="none" xmlns="http://www.w3.org/2000/svg">
<g clip-path="url(#clip0_4593_79592)">
<path d="M22.311 20.0973V8.91872C22.311 8.58728 22.0424 8.31872 21.711 8.31872H18.3192V5.74804C18.3192 5.4166 18.0506 5.14805 17.7192 5.14805H15.1334V4.3047C15.1334 2.57672 13.7278 1.1709 12 1.1709C10.2722 1.1709 8.8666 2.57672 8.8666 4.3047V5.14805H6.28088C5.94944 5.14805 5.68088 5.4166 5.68088 5.74804V8.31872H2.28901C1.95765 8.31872 1.68902 8.58728 1.68902 8.91872V20.0973C0.75503 20.114 0 20.8778 0 21.8157V22.1098C0 23.0582 0.77159 23.8298 1.71998 23.8298H22.28C23.2284 23.8298 24 23.0582 24 22.1098V21.8157C24 20.8778 23.245 20.114 22.311 20.0973ZM6.28088 17.8564H17.7191C18.0506 17.8564 18.3191 17.5879 18.3191 17.2564V11.5676H19.232V19.9735H4.7681V11.5676H5.68088V17.2564C5.68088 17.5878 5.94944 17.8564 6.28088 17.8564ZM21.111 9.51871V19.9735H20.432V10.9676C20.432 10.6361 20.1635 10.3676 19.8321 10.3676H18.3192V9.51871H21.111ZM10.0666 4.3047C10.0666 3.23839 10.9339 2.37088 12 2.37088C13.0661 2.37088 13.9334 3.23839 13.9334 4.3047V5.14805H10.0666V4.3047ZM6.88087 6.34803H8.8666V7.37546C8.8666 7.70689 9.13516 7.97545 9.46659 7.97545C9.79803 7.97545 10.0666 7.70689 10.0666 7.37546V6.34803H13.9334V7.37546C13.9334 7.70689 14.202 7.97545 14.5334 7.97545C14.8648 7.97545 15.1334 7.70689 15.1334 7.37546V6.34803H17.1191V16.6564H6.88087V6.34803ZM2.889 9.51871H5.68088V10.3676H4.1681C3.83667 10.3676 3.56811 10.6361 3.56811 10.9676V19.9734H2.88908L2.889 9.51871ZM22.8 22.1098C22.8 22.3965 22.5667 22.6298 22.28 22.6298H1.71998C1.43326 22.6298 1.19998 22.3965 1.19998 22.1098V21.8157C1.19998 21.529 1.43326 21.2958 1.71998 21.2958H22.28C22.5667 21.2958 22.8 21.529 22.8 21.8157V22.1098Z" fill="url(#paint0_linear_4593_79592)"/>
<path d="M13.7518 12.7885L9.85938 11.2275L11.4161 15.1297L11.7956 13.9495L13.3648 15.522L14.1429 14.7418L12.5741 13.169L13.7518 12.7885Z" fill="url(#paint1_linear_4593_79592)"/>
</g>
<defs>
<linearGradient id="paint0_linear_4593_79592" x1="0" y1="12.5003" x2="24" y2="12.5003" gradientUnits="userSpaceOnUse">
<stop stop-color="#8EC63D"/>
<stop offset="1" stop-color="#039445"/>
</linearGradient>
<linearGradient id="paint1_linear_4593_79592" x1="9.85938" y1="13.3748" x2="14.1429" y2="13.3748" gradientUnits="userSpaceOnUse">
<stop stop-color="#8EC63D"/>
<stop offset="1" stop-color="#039445"/>
</linearGradient>
<clipPath id="clip0_4593_79592">
<rect width="24" height="24" fill="white" transform="translate(0 0.5)"/>
</clipPath>
</defs>
</svg>
