<svg width="24" height="25" viewBox="0 0 24 25" fill="none" xmlns="http://www.w3.org/2000/svg">
<path d="M12 22.5C13.9778 22.5 15.9112 21.9135 17.5557 20.8147C19.2002 19.7159 20.4819 18.1541 21.2388 16.3268C21.9957 14.4996 22.1937 12.4889 21.8079 10.5491C21.422 8.60929 20.4696 6.82746 19.0711 5.42894C17.6725 4.03041 15.8907 3.078 13.9509 2.69215C12.0111 2.3063 10.0004 2.50433 8.17317 3.26121C6.3459 4.01809 4.78412 5.29981 3.6853 6.9443C2.58649 8.58879 2 10.5222 2 12.5C2 15.1522 3.05357 17.6957 4.92893 19.5711C5.85752 20.4997 6.95991 21.2362 8.17317 21.7388C9.38642 22.2413 10.6868 22.5 12 22.5ZM12 20.5C11.7033 20.5 11.4133 20.412 11.1666 20.2472C10.92 20.0824 10.7277 19.8481 10.6142 19.574C10.5006 19.2999 10.4709 18.9983 10.5288 18.7074C10.5867 18.4164 10.7296 18.1491 10.9393 17.9393C11.1491 17.7296 11.4164 17.5867 11.7074 17.5288C11.9983 17.4709 12.2999 17.5007 12.574 17.6142C12.8481 17.7277 13.0824 17.92 13.2472 18.1666C13.412 18.4133 13.5 18.7033 13.5 19C13.5 19.3978 13.342 19.7794 13.0607 20.0607C12.7794 20.342 12.3978 20.5 12 20.5ZM8 9.494C7.98526 8.72572 8.19739 7.97015 8.60987 7.32182C9.02235 6.67349 9.61685 6.16119 10.319 5.849C10.9416 5.57093 11.6243 5.45411 12.3039 5.50934C12.9836 5.56457 13.6384 5.79005 14.208 6.165C14.7332 6.51273 15.1689 6.97958 15.4795 7.52753C15.7902 8.07548 15.967 8.68905 15.9957 9.31829C16.0243 9.94752 15.904 10.5746 15.6444 11.1486C15.3849 11.7225 14.9934 12.227 14.502 12.621C13.8128 13.1521 13.3171 13.8948 13.091 14.735C13.0287 14.9928 12.8665 15.2153 12.6401 15.3535C12.4138 15.4917 12.1418 15.5343 11.884 15.472C11.6262 15.4097 11.4037 15.2475 11.2655 15.0211C11.1273 14.7948 11.0847 14.5228 11.147 14.265C11.4725 12.9949 12.2113 11.8691 13.247 11.065C13.4932 10.8681 13.6893 10.6158 13.8194 10.3287C13.9495 10.0416 14.0099 9.72776 13.9957 9.41286C13.9815 9.09796 13.893 8.79088 13.7375 8.51667C13.582 8.24247 13.3639 8.00889 13.101 7.835C12.8065 7.64221 12.4674 7.52812 12.1162 7.50361C11.7651 7.4791 11.4135 7.54499 11.095 7.695C10.7573 7.85664 10.4737 8.11267 10.2785 8.43213C10.0833 8.75158 9.98479 9.12076 9.995 9.495C9.97777 9.74741 9.8655 9.9839 9.68084 10.1568C9.49617 10.3297 9.25282 10.4262 8.99983 10.4269C8.74684 10.4275 8.50301 10.3322 8.31748 10.1602C8.13195 9.98824 8.0185 9.75232 8 9.5V9.494Z" fill="url(#paint0_linear_4593_82492)"/>
<defs>
<linearGradient id="paint0_linear_4593_82492" x1="2" y1="12.5" x2="22" y2="12.5" gradientUnits="userSpaceOnUse">
<stop stop-color="#8EC63D"/>
<stop offset="1" stop-color="#039445"/>
</linearGradient>
</defs>
</svg>
