<svg width="24" height="25" viewBox="0 0 24 25" fill="none" xmlns="http://www.w3.org/2000/svg">
<g clip-path="url(#clip0_4593_40902)">
<path d="M15 16.5H2V5.5C2 3.846 3.346 2.5 5 2.5H12C12.552 2.5 13 2.053 13 1.5C13 0.947 12.552 0.5 12 0.5H5C2.243 0.5 0 2.743 0 5.5V19.5C0 22.257 2.243 24.5 5 24.5H11C13.757 24.5 16 22.257 16 19.5V17.5C16 16.947 15.552 16.5 15 16.5ZM14 19.5C14 21.154 12.654 22.5 11 22.5H5C3.346 22.5 2 21.154 2 19.5V18.5H14V19.5ZM6.5 20.5C6.5 19.947 6.948 19.5 7.5 19.5H8.5C9.052 19.5 9.5 19.947 9.5 20.5C9.5 21.053 9.052 21.5 8.5 21.5H7.5C6.948 21.5 6.5 21.053 6.5 20.5ZM22 4.5H10C8.895 4.5 8 5.395 8 6.5V12.5C8 13.605 8.895 14.5 10 14.5H22C23.105 14.5 24 13.605 24 12.5V6.5C24 5.395 23.105 4.5 22 4.5ZM10.5 13.5C9.672 13.5 9 12.828 9 12C9 11.172 9.672 10.5 10.5 10.5C11.328 10.5 12 11.172 12 12C12 12.828 11.328 13.5 10.5 13.5ZM10.5 8.5C9.672 8.5 9 7.828 9 7C9 6.172 9.672 5.5 10.5 5.5C11.328 5.5 12 6.172 12 7C12 7.828 11.328 8.5 10.5 8.5ZM16 12.5C14.343 12.5 13 11.157 13 9.5C13 7.843 14.343 6.5 16 6.5C17.657 6.5 19 7.843 19 9.5C19 11.157 17.657 12.5 16 12.5ZM21.5 13.5C20.672 13.5 20 12.828 20 12C20 11.172 20.672 10.5 21.5 10.5C22.328 10.5 23 11.172 23 12C23 12.828 22.328 13.5 21.5 13.5ZM21.5 8.5C20.672 8.5 20 7.828 20 7C20 6.172 20.672 5.5 21.5 5.5C22.328 5.5 23 6.172 23 7C23 7.828 22.328 8.5 21.5 8.5Z" fill="url(#paint0_linear_4593_40902)"/>
</g>
<defs>
<linearGradient id="paint0_linear_4593_40902" x1="0" y1="12.5" x2="24" y2="12.5" gradientUnits="userSpaceOnUse">
<stop stop-color="#8EC63D"/>
<stop offset="1" stop-color="#039445"/>
</linearGradient>
<clipPath id="clip0_4593_40902">
<rect width="24" height="24" fill="white" transform="translate(0 0.5)"/>
</clipPath>
</defs>
</svg>
