<svg width="24" height="24" viewBox="0 0 24 24" fill="none" xmlns="http://www.w3.org/2000/svg">
<path d="M16.8543 0.967916L16.8568 0.965438C17.475 0.346456 18.4931 0.344523 19.1172 0.96944L19.1172 0.969476L19.1223 0.974448L21.3503 3.14245L21.3505 3.1426C21.5479 3.33452 21.5526 3.65095 21.3595 3.84956C21.1673 4.04721 20.8502 4.05131 20.653 3.85905L20.6528 3.8589L19.3508 2.5909L18.502 1.76422V2.9491V9.0011C18.502 9.27696 18.2779 9.5011 18.002 9.5011C17.7261 9.5011 17.502 9.27696 17.502 9.0011V2.9301V1.73351L16.6506 2.57436L15.3542 3.85482C15.3542 3.85486 15.3541 3.85489 15.3541 3.85493C15.2554 3.95203 15.1286 4.0001 15.002 4.0001C14.8717 4.0001 14.744 3.95047 14.6472 3.85226L14.6187 3.82325C14.4514 3.62573 14.4621 3.32973 14.6493 3.14491L14.298 2.7891L14.6493 3.14491L16.8543 0.967916ZM22.3749 10.0228L22.375 10.0228C23.1004 10.8455 23.5 11.9019 23.5 13.0001V19.0001C23.5 21.481 21.4809 23.5001 19 23.5001H5C2.51914 23.5001 0.5 21.481 0.5 19.0001V13.0001C0.5 10.5192 2.51914 8.5001 5 8.5001H14C14.2759 8.5001 14.5 8.72424 14.5 9.0001C14.5 9.27596 14.2759 9.5001 14 9.5001H5C3.06986 9.5001 1.5 11.07 1.5 13.0001V19.0001C1.5 20.9302 3.06986 22.5001 5 22.5001H19.001C20.9311 22.5001 22.501 20.9302 22.501 19.0001V13.0001C22.501 12.1461 22.1894 11.3244 21.6258 10.6862L21.6256 10.6859C21.4423 10.4786 21.4624 10.162 21.6687 9.98015L21.6692 9.97965C21.8772 9.79578 22.1928 9.81613 22.3749 10.0228ZM17.5 12.5001C17.5 11.9482 17.9481 11.5001 18.5 11.5001C19.0519 11.5001 19.5 11.9482 19.5 12.5001C19.5 13.052 19.0519 13.5001 18.5 13.5001C17.9481 13.5001 17.5 13.052 17.5 12.5001ZM17.5 19.5001C17.5 18.9482 17.9481 18.5001 18.5 18.5001C19.0519 18.5001 19.5 18.9482 19.5 19.5001C19.5 20.052 19.0519 20.5001 18.5 20.5001C17.9481 20.5001 17.5 20.052 17.5 19.5001ZM4.5 12.5001C4.5 11.9482 4.94814 11.5001 5.5 11.5001C6.05186 11.5001 6.5 11.9482 6.5 12.5001C6.5 13.052 6.05186 13.5001 5.5 13.5001C4.94814 13.5001 4.5 13.052 4.5 12.5001ZM15.5 16.0001C15.5 17.93 13.9299 19.5001 12 19.5001C10.0701 19.5001 8.5 17.93 8.5 16.0001C8.5 14.0702 10.0701 12.5001 12 12.5001C13.9299 12.5001 15.5 14.0702 15.5 16.0001ZM14.5 16.0001C14.5 14.621 13.3791 13.5001 12 13.5001C10.6209 13.5001 9.5 14.621 9.5 16.0001C9.5 17.3792 10.6209 18.5001 12 18.5001C13.3791 18.5001 14.5 17.3792 14.5 16.0001ZM4.5 19.5001C4.5 18.9482 4.94814 18.5001 5.5 18.5001C6.05186 18.5001 6.5 18.9482 6.5 19.5001C6.5 20.052 6.05186 20.5001 5.5 20.5001C4.94814 20.5001 4.5 20.052 4.5 19.5001Z" stroke="white"/>
</svg>
