<svg width="21" height="20" viewBox="0 0 21 20" fill="none" xmlns="http://www.w3.org/2000/svg">
<path d="M13.5417 4.16667C11.9308 4.16667 10.625 5.4725 10.625 7.08333C10.625 8.69417 11.9308 10 13.5417 10C15.1525 10 16.4583 8.69417 16.4583 7.08333C16.4583 5.4725 15.1525 4.16667 13.5417 4.16667ZM8.95833 7.08333C8.95833 4.55202 11.0103 2.5 13.5417 2.5C16.073 2.5 18.125 4.55202 18.125 7.08333C18.125 8.04792 17.827 8.94292 17.3181 9.68125L19.5476 11.9107L18.3691 13.0892L16.1396 10.8597C15.4012 11.3687 14.5062 11.6667 13.5417 11.6667C11.0103 11.6667 8.95833 9.61467 8.95833 7.08333ZM3.125 3.33333H7.29167V5H3.125V3.33333ZM3.125 9.16667H7.29167V10.8333H3.125V9.16667ZM18.125 15V16.6667H3.125V15H18.125Z" fill="#5B5C5F"/>
</svg>
