<svg width="21" height="20" viewBox="0 0 21 20" fill="none" xmlns="http://www.w3.org/2000/svg">
<path d="M17.1641 15.5559L17.4974 16.0003C17.6355 16.1844 17.5981 16.4456 17.4141 16.5837C17.342 16.6377 17.2542 16.667 17.1641 16.667H3.83073C3.60061 16.667 3.41406 16.4804 3.41406 16.2503C3.41406 16.1602 3.4433 16.0724 3.4974 16.0003L3.83073 15.5559V8.33366C3.83073 4.65176 6.8155 1.66699 10.4974 1.66699C14.1793 1.66699 17.1641 4.65176 17.1641 8.33366V15.5559ZM8.41406 17.5003H12.5807C12.5807 18.6509 11.648 19.5837 10.4974 19.5837C9.34681 19.5837 8.41406 18.6509 8.41406 17.5003Z" fill="#FF9900"/>
</svg>
