<svg width="24" height="24" viewBox="0 0 24 24" fill="none" xmlns="http://www.w3.org/2000/svg">
<path d="M24 11C24 8.243 21.757 6 19 6H17V5C17 3.346 15.654 2 14 2H13V4H14C14.551 4 15 4.448 15 5V18H2V12H0V20H2.041C2.017 20.165 2 20.331 2 20.5C2 22.43 3.57 24 5.5 24C7.43 24 9 22.43 9 20.5C9 20.331 8.983 20.165 8.959 20H15.041C15.017 20.165 15 20.331 15 20.5C15 22.43 16.57 24 18.5 24C20.43 24 22 22.43 22 20.5C22 20.331 21.983 20.165 21.959 20H24V11ZM7 20.5C7 21.327 6.327 22 5.5 22C4.673 22 4 21.327 4 20.5C4 20.311 4.039 20.145 4.093 20H6.908C6.962 20.145 7 20.311 7 20.5ZM19 8C20.654 8 22 9.346 22 11V12H17V8H19ZM20 20.5C20 21.327 19.327 22 18.5 22C17.673 22 17 21.327 17 20.5C17 20.311 17.039 20.145 17.093 20H19.908C19.962 20.145 20 20.311 20 20.5ZM17 18V14H22V18H17ZM11 2.5C11 1.121 9.878 0 8.5 0H2.5C1.122 0 0 1.121 0 2.5V10H11V2.5ZM9 8H2V2.5C2 2.225 2.224 2 2.5 2H8.5C8.776 2 9 2.225 9 2.5V8ZM4 3H7V5H4V3Z" fill="#039445"/>
</svg>
