<svg width="24" height="22" viewBox="0 0 24 22" fill="none" xmlns="http://www.w3.org/2000/svg">
<path d="M11.936 5.801L13.35 7.215L9.152 11.414C8.762 11.804 8.25 11.999 7.738 11.999C7.226 11.999 6.714 11.804 6.324 11.414L3.651 8.741L5.065 7.327L7.738 10L11.936 5.801ZM24 18H21.959C21.983 18.165 22 18.331 22 18.5C22 20.43 20.43 22 18.5 22C16.57 22 15 20.43 15 18.5C15 18.331 15.017 18.165 15.041 18H8.959C8.983 18.165 9 18.331 9 18.5C9 20.43 7.43 22 5.5 22C3.57 22 2 20.43 2 18.5C2 18.331 2.017 18.165 2.041 18H0V3C0 1.346 1.346 0 3 0H14C15.654 0 17 1.346 17 3V4H19C21.757 4 24 6.243 24 9V18ZM17 6V10H22V9C22 7.346 20.654 6 19 6H17ZM6.907 18H4.093C4.039 18.144 4 18.31 4 18.5C4 19.327 4.673 20 5.5 20C6.327 20 7 19.327 7 18.5C7 18.31 6.961 18.144 6.907 18ZM15 3C15 2.449 14.552 2 14 2H3C2.448 2 2 2.449 2 3V16H15V3ZM19.907 18H17.093C17.039 18.144 17 18.31 17 18.5C17 19.327 17.673 20 18.5 20C19.327 20 20 19.327 20 18.5C20 18.31 19.961 18.144 19.907 18ZM22 16V12H17V16H22Z" fill="#039445"/>
</svg>
