<svg width="18" height="18" viewBox="0 0 18 18" fill="none" xmlns="http://www.w3.org/2000/svg">
<path d="M0.75 9H17.25M0.75 12.75H17.25M0.75 16.5H17.25M2.625 1.5H15.375C15.8723 1.5 16.3492 1.69754 16.7008 2.04917C17.0525 2.40081 17.25 2.87772 17.25 3.375C17.25 3.87228 17.0525 4.34919 16.7008 4.70083C16.3492 5.05246 15.8723 5.25 15.375 5.25H2.625C2.12772 5.25 1.65081 5.05246 1.29917 4.70083C0.947544 4.34919 0.75 3.87228 0.75 3.375C0.75 2.87772 0.947544 2.40081 1.29917 2.04917C1.65081 1.69754 2.12772 1.5 2.625 1.5Z" stroke="white" stroke-width="1.5" stroke-linecap="round" stroke-linejoin="round"/>
</svg>
