<svg width="24" height="25" viewBox="0 0 24 25" fill="none" xmlns="http://www.w3.org/2000/svg">
<g clip-path="url(#clip0_4593_19031)">
<path d="M11.9991 13.5C11.5571 13.5 11.1991 13.142 11.1991 12.7V12.3H10.9991C10.2881 12.3 9.6511 11.975 9.2291 11.467C8.8111 10.963 9.1661 10.201 9.8211 10.201H9.8971C10.1241 10.201 10.3311 10.308 10.4851 10.475C10.6131 10.614 10.7971 10.701 11.0001 10.701H13.1031C13.3811 10.701 13.6351 10.514 13.6891 10.241C13.7521 9.923 13.5431 9.626 13.2381 9.564L10.4471 9.005C9.3351 8.782 8.5591 7.724 8.7221 6.566C8.8741 5.486 9.8301 4.7 10.9211 4.7H11.2011V4.3C11.2011 3.858 11.5591 3.5 12.0011 3.5C12.4431 3.5 12.8011 3.858 12.8011 4.3V4.7H13.0011C13.7121 4.7 14.3491 5.024 14.7711 5.533C15.1891 6.037 14.8341 6.799 14.1791 6.799H14.1031C13.8761 6.799 13.6691 6.692 13.5151 6.525C13.3871 6.386 13.2031 6.299 13.0001 6.299H10.8981C10.6201 6.299 10.3661 6.485 10.3111 6.757C10.2471 7.075 10.4571 7.374 10.7601 7.435L13.5521 7.994C14.6641 8.216 15.4411 9.276 15.2771 10.433C15.1241 11.513 14.1691 12.298 13.0781 12.298H12.7981V12.698C12.7981 13.14 12.4401 13.498 11.9981 13.498L11.9991 13.5ZM23.9071 17.925C22.0451 23.226 16.4671 24.5 12.9991 24.5H10.9991C8.5301 24.5 2.5871 23.899 0.111102 17.979C-0.113898 17.442 -0.0358982 16.83 0.318102 16.342C0.735102 15.769 1.4461 15.458 2.1791 15.507C6.6851 15.875 9.4111 17.955 10.9991 19.861V16.43C7.0591 15.935 3.9991 12.571 3.9991 8.499C3.9991 4.089 7.5881 0.5 11.9991 0.5C16.4101 0.5 19.9991 4.089 19.9991 8.5C19.9991 12.572 16.9391 15.936 12.9991 16.431V19.861C14.5871 17.955 17.3131 15.875 21.8191 15.507C22.5271 15.461 23.2161 15.749 23.6311 16.289C24.0031 16.771 24.1041 17.367 23.9071 17.925ZM11.9991 14.5C15.3081 14.5 17.9991 11.809 17.9991 8.5C17.9991 5.191 15.3081 2.5 11.9991 2.5C8.6901 2.5 5.9991 5.191 5.9991 8.5C5.9991 11.809 8.6901 14.5 11.9991 14.5ZM10.4581 22.55C9.4731 20.837 7.0871 17.941 2.0881 17.507C4.0381 21.753 8.2431 22.479 10.4581 22.55ZM21.9211 17.529C16.9091 17.968 14.5251 20.847 13.5401 22.552C15.8381 22.494 20.2521 21.804 21.9211 17.529Z" fill="url(#paint0_linear_4593_19031)"/>
</g>
<defs>
<linearGradient id="paint0_linear_4593_19031" x1="-0.015625" y1="12.5" x2="24.0058" y2="12.5" gradientUnits="userSpaceOnUse">
<stop stop-color="#8EC63D"/>
<stop offset="1" stop-color="#039445"/>
</linearGradient>
<clipPath id="clip0_4593_19031">
<rect width="24" height="24" fill="white" transform="translate(0 0.5)"/>
</clipPath>
</defs>
</svg>
