<svg width="24" height="25" viewBox="0 0 24 25" fill="none" xmlns="http://www.w3.org/2000/svg">
<g clip-path="url(#clip0_4593_39029)">
<path d="M23.56 21.9452L18.9149 17.2981C22.3906 12.6533 21.4429 6.07034 16.7981 2.59462C12.1533 -0.881104 5.57034 0.0666121 2.09462 4.71139C-1.3811 9.35616 -0.433388 15.9392 4.21139 19.4149C7.94245 22.2069 13.067 22.2069 16.7981 19.4149L21.4452 24.062C22.0292 24.646 22.976 24.646 23.56 24.062C24.144 23.478 24.144 22.5312 23.56 21.9472L23.56 21.9452ZM10.5435 18.5179C6.41542 18.5179 3.06901 15.1715 3.06901 11.0435C3.06901 6.91542 6.41542 3.56901 10.5435 3.56901C14.6715 3.56901 18.0179 6.91542 18.0179 11.0435C18.0136 15.1697 14.6697 18.5136 10.5435 18.5179Z" fill="url(#paint0_linear_4593_39029)"/>
</g>
<defs>
<linearGradient id="paint0_linear_4593_39029" x1="0" y1="12.5" x2="23.998" y2="12.5" gradientUnits="userSpaceOnUse">
<stop stop-color="#8EC63D"/>
<stop offset="1" stop-color="#039445"/>
</linearGradient>
<clipPath id="clip0_4593_39029">
<rect width="24" height="24" fill="white" transform="translate(0 0.5)"/>
</clipPath>
</defs>
</svg>
