<svg width="21" height="20" viewBox="0 0 21 20" fill="none" xmlns="http://www.w3.org/2000/svg">
<path d="M16.2087 18.3334H4.54199C3.16128 18.3334 2.04199 17.2142 2.04199 15.8334V2.50008C2.04199 2.03985 2.41509 1.66675 2.87533 1.66675H14.542C15.0022 1.66675 15.3753 2.03985 15.3753 2.50008V12.5001H18.7087V15.8334C18.7087 17.2142 17.5894 18.3334 16.2087 18.3334ZM15.3753 14.1667V15.8334C15.3753 16.2937 15.7484 16.6667 16.2087 16.6667C16.6689 16.6667 17.042 16.2937 17.042 15.8334V14.1667H15.3753ZM13.7087 16.6667V3.33341H3.70866V15.8334C3.70866 16.2937 4.08176 16.6667 4.54199 16.6667H13.7087ZM5.37533 5.83342H12.042V7.50008H5.37533V5.83342ZM5.37533 9.16675H12.042V10.8334H5.37533V9.16675ZM5.37533 12.5001H9.54199V14.1667H5.37533V12.5001Z" fill="#6C6C6C"/>
</svg>
