<svg width="24" height="25" viewBox="0 0 24 25" fill="none" xmlns="http://www.w3.org/2000/svg">
<path d="M4.00781 16.5V4.5H2.00781V2.5H5.00781C5.5601 2.5 6.00781 2.94772 6.00781 3.5V15.5H18.4462L20.4462 7.5H8.00781V5.5H21.727C22.2793 5.5 22.727 5.94772 22.727 6.5C22.727 6.58176 22.717 6.66322 22.6971 6.74254L20.1971 16.7425C20.0859 17.1877 19.6859 17.5 19.227 17.5H5.00781C4.45553 17.5 4.00781 17.0523 4.00781 16.5ZM6.00781 23.5C4.90324 23.5 4.00781 22.6046 4.00781 21.5C4.00781 20.3954 4.90324 19.5 6.00781 19.5C7.11238 19.5 8.00781 20.3954 8.00781 21.5C8.00781 22.6046 7.11238 23.5 6.00781 23.5ZM18.0078 23.5C16.9032 23.5 16.0078 22.6046 16.0078 21.5C16.0078 20.3954 16.9032 19.5 18.0078 19.5C19.1124 19.5 20.0078 20.3954 20.0078 21.5C20.0078 22.6046 19.1124 23.5 18.0078 23.5Z" fill="url(#paint0_linear_4593_65645)"/>
<defs>
<linearGradient id="paint0_linear_4593_65645" x1="2.00781" y1="13" x2="22.727" y2="13" gradientUnits="userSpaceOnUse">
<stop stop-color="#8EC63D"/>
<stop offset="1" stop-color="#039445"/>
</linearGradient>
</defs>
</svg>
