<svg width="24" height="25" viewBox="0 0 24 25" fill="none" xmlns="http://www.w3.org/2000/svg">
<path d="M3.49612 8.56439L4.78258 19.4993H19.2256L20.512 8.56439L16.5022 11.2376L12.0041 4.94026L7.50597 11.2376L3.49612 8.56439ZM2.8048 5.69981L7.00408 8.49933L11.1903 2.63856C11.5113 2.18915 12.1359 2.08506 12.5853 2.40607C12.6751 2.47021 12.7536 2.54877 12.8178 2.63856L17.0041 8.49933L21.2033 5.69981C21.6629 5.39346 22.2837 5.51763 22.5901 5.97716C22.7218 6.17478 22.7789 6.41283 22.7512 6.6487L21.108 20.6162C21.0487 21.1198 20.6219 21.4993 20.1148 21.4993H3.89333C3.38625 21.4993 2.95943 21.1198 2.90018 20.6162L1.25695 6.6487C1.19242 6.1002 1.58476 5.60324 2.13326 5.53871C2.36914 5.51096 2.60719 5.56807 2.8048 5.69981ZM12.0041 15.4993C10.8995 15.4993 10.0041 14.6039 10.0041 13.4993C10.0041 12.3947 10.8995 11.4993 12.0041 11.4993C13.1086 11.4993 14.0041 12.3947 14.0041 13.4993C14.0041 14.6039 13.1086 15.4993 12.0041 15.4993Z" fill="#FF9900"/>
</svg>
