<svg width="20" height="20" viewBox="0 0 20 20" fill="none" xmlns="http://www.w3.org/2000/svg">
<path d="M19 9.6458V19C19 19.5523 18.5523 20 18 20H2C1.44772 20 1 19.5523 1 19V9.6458C0.37764 8.9407 0 8.0144 0 7V1C0 0.44772 0.44772 0 1 0H19C19.5523 0 20 0.44772 20 1V7C20 8.0144 19.6224 8.9407 19 9.6458ZM17 10.874C16.6804 10.9562 16.3453 11 16 11C14.8053 11 13.7329 10.4762 13 9.6458C12.2671 10.4762 11.1947 11 10 11C8.8053 11 7.73294 10.4762 7 9.6458C6.26706 10.4762 5.19469 11 4 11C3.6547 11 3.31962 10.9562 3 10.874V18H17V10.874ZM12 7C12 6.44772 12.4477 6 13 6C13.5523 6 14 6.44772 14 7C14 8.1046 14.8954 9 16 9C17.1046 9 18 8.1046 18 7V2H2V7C2 8.1046 2.89543 9 4 9C5.10457 9 6 8.1046 6 7C6 6.44772 6.44772 6 7 6C7.55228 6 8 6.44772 8 7C8 8.1046 8.8954 9 10 9C11.1046 9 12 8.1046 12 7Z" fill="#7C7D7F"/>
</svg>
