<svg width="20" height="20" viewBox="0 0 20 20" fill="none" xmlns="http://www.w3.org/2000/svg">
<path d="M14.9057 3.68009L3.68009 14.9057C2.62644 13.5506 2 11.8491 2 10C2 5.58172 5.58172 2 10 2C11.8491 2 13.5506 2.62644 14.9057 3.68009ZM5.0943 16.3199L16.3199 5.0943C17.3736 6.44939 18 8.1509 18 10C18 14.4183 14.4183 18 10 18C8.1509 18 6.44939 17.3736 5.0943 16.3199ZM10 0C4.47715 0 0 4.47715 0 10C0 15.5223 4.47771 20 10 20C15.5228 20 20 15.5228 20 10C20 4.47771 15.5223 0 10 0Z" fill="white"/>
</svg>
