<svg width="24" height="25" viewBox="0 0 24 25" fill="none" xmlns="http://www.w3.org/2000/svg">
<path d="M19.9381 8.5H21C22.1046 8.5 23 9.39543 23 10.5V14.5C23 15.6046 22.1046 16.5 21 16.5H19.9381C19.446 20.4463 16.0796 23.5 12 23.5V21.5C15.3137 21.5 18 18.8137 18 15.5V9.5C18 6.18629 15.3137 3.5 12 3.5C8.68629 3.5 6 6.18629 6 9.5V16.5H3C1.89543 16.5 1 15.6046 1 14.5V10.5C1 9.39543 1.89543 8.5 3 8.5H4.06189C4.55399 4.55369 7.92038 1.5 12 1.5C16.0796 1.5 19.446 4.55369 19.9381 8.5ZM3 10.5V14.5H4V10.5H3ZM20 10.5V14.5H21V10.5H20ZM7.75944 16.2849L8.81958 14.5887C9.74161 15.1662 10.8318 15.5 12 15.5C13.1682 15.5 14.2584 15.1662 15.1804 14.5887L16.2406 16.2849C15.0112 17.0549 13.5576 17.5 12 17.5C10.4424 17.5 8.98882 17.0549 7.75944 16.2849Z" fill="url(#paint0_linear_4593_44590)"/>
<defs>
<linearGradient id="paint0_linear_4593_44590" x1="1" y1="12.5" x2="23" y2="12.5" gradientUnits="userSpaceOnUse">
<stop stop-color="#8EC63D"/>
<stop offset="1" stop-color="#039445"/>
</linearGradient>
</defs>
</svg>
