<svg width="24" height="24" viewBox="0 0 24 24" fill="none" xmlns="http://www.w3.org/2000/svg">
<path d="M8.5 16V21.5H7.5V16C7.5 13.5147 9.51472 11.5 12 11.5C14.4853 11.5 16.5 13.5147 16.5 16V21.5H15.5V16C15.5 14.1359 14.043 12.6124 12.2052 12.5059L12.198 12.5055L12.1908 12.5053L12.0145 12.5002L12.0072 12.5H12C10.1358 12.5 8.61241 13.9571 8.50593 15.7948L8.50551 15.802L8.5053 15.8093L8.50021 15.9856L8.5 15.9928V16ZM3.5 17.5V21.5H2.5V17.5C2.5 15.8431 3.84314 14.5 5.5 14.5C5.55822 14.5 5.61601 14.5017 5.67334 14.5049C5.59688 14.8284 5.54483 15.1609 5.51896 15.5003L5.51194 15.5H5.5C4.46012 15.5 3.6061 16.2932 3.50914 17.3079L3.508 17.3198L3.50743 17.3318L3.50056 17.4763L3.5 17.4881V17.5ZM21.5 21.5H20.5L18.481 15.5001C18.4552 15.1606 18.4032 14.8282 18.3271 14.5049C18.3842 14.5017 18.4419 14.5 18.5 14.5C20.1569 14.5 21.5 15.8431 21.5 17.5V21.5ZM5.5 8.5C6.60457 8.5 7.5 9.39543 7.5 10.5C7.5 11.6046 6.60457 12.5 5.5 12.5C4.39543 12.5 3.5 11.6046 3.5 10.5C3.5 9.39543 4.39543 8.5 5.5 8.5ZM18.5 8.5C19.6046 8.5 20.5 9.39543 20.5 10.5C20.5 11.6046 19.6046 12.5 18.5 12.5C17.3954 12.5 16.5 11.6046 16.5 10.5C16.5 9.39543 17.3954 8.5 18.5 8.5ZM5.5 9.5C4.94769 9.5 4.5 9.94778 4.5 10.5C4.5 11.0522 4.94769 11.5 5.5 11.5C6.05231 11.5 6.5 11.0522 6.5 10.5C6.5 9.94778 6.05231 9.5 5.5 9.5ZM18.5 9.5C17.9478 9.5 17.5 9.94776 17.5 10.5C17.5 11.0522 17.9478 11.5 18.5 11.5C19.0522 11.5 19.5 11.0522 19.5 10.5C19.5 9.94776 19.0522 9.5 18.5 9.5ZM12 2.5C13.933 2.5 15.5 4.06701 15.5 6C15.5 7.93299 13.933 9.5 12 9.5C10.067 9.5 8.5 7.933 8.5 6C8.5 4.067 10.067 2.5 12 2.5ZM12 3.5C10.6193 3.5 9.5 4.61929 9.5 6C9.5 7.38071 10.6193 8.5 12 8.5C13.3807 8.5 14.5 7.38071 14.5 6C14.5 4.61929 13.3807 3.5 12 3.5Z" stroke="white"/>
</svg>
