<svg width="24" height="25" viewBox="0 0 24 25" fill="none" xmlns="http://www.w3.org/2000/svg">
<path d="M10.0104 2.60328C8.60886 2.14957 7.08523 2.78067 6.41498 4.09257L5.6092 5.66974C5.51346 5.85714 5.36105 6.00955 5.17365 6.10529L3.59648 6.91107C2.28458 7.58132 1.65348 9.10495 2.10719 10.5065L2.65265 12.1915C2.71746 12.3917 2.71746 12.6073 2.65265 12.8075L2.10719 14.4925C1.65348 15.8941 2.28458 17.4177 3.59648 18.088L5.17365 18.8937C5.36105 18.9895 5.51346 19.1419 5.6092 19.3293L6.41498 20.9065C7.08523 22.2184 8.60886 22.8495 10.0104 22.3958L11.6954 21.8503C11.8956 21.7855 12.1112 21.7855 12.3114 21.8503L13.9964 22.3958C15.398 22.8495 16.9216 22.2184 17.5919 20.9065L18.3976 19.3293C18.4934 19.1419 18.6458 18.9895 18.8332 18.8937L20.4104 18.088C21.7223 17.4177 22.3534 15.8941 21.8997 14.4925L21.3542 12.8075C21.2894 12.6073 21.2894 12.3917 21.3542 12.1915L21.8997 10.5065C22.3534 9.10495 21.7223 7.58132 20.4104 6.91107L18.8332 6.10529C18.6458 6.00955 18.4934 5.85714 18.3976 5.66974L17.5919 4.09257C16.9216 2.78067 15.398 2.14957 13.9964 2.60328L12.3114 3.14874C12.1112 3.21354 11.8956 3.21355 11.6954 3.14874L10.0104 2.60328ZM6.76319 12.2568L8.17741 10.8425L11.0058 13.671L16.6627 8.01416L18.0769 9.42837L11.0058 16.4994L6.76319 12.2568Z" fill="url(#paint0_linear_4593_40994)"/>
<defs>
<linearGradient id="paint0_linear_4593_40994" x1="1.96094" y1="12.4995" x2="22.046" y2="12.4995" gradientUnits="userSpaceOnUse">
<stop stop-color="#8EC63D"/>
<stop offset="1" stop-color="#039445"/>
</linearGradient>
</defs>
</svg>
