<svg width="20" height="20" viewBox="0 0 20 20" fill="none" xmlns="http://www.w3.org/2000/svg">
<path d="M3.38456 6.00024L5.5 6.00005V7H0.5V2H1.49998L1.49989 3.99916L1.49982 5.49721L2.39964 4.29951C4.13372 1.99137 6.89262 0.5 10 0.5C15.2467 0.5 19.5 4.75329 19.5 10C19.5 15.2467 15.2467 19.5 10 19.5C4.92101 19.5 0.772941 15.5142 0.512932 10.5H1.51446C1.77327 14.9617 5.47342 18.5 10 18.5C14.6944 18.5 18.5 14.6944 18.5 10C18.5 5.30558 14.6944 1.5 10 1.5C7.0779 1.5 4.50045 2.97495 2.97134 5.21866L2.43862 6.00033L3.38456 6.00024ZM10.5 5.5L10.4998 9.58498L10.4998 9.79207L10.6462 9.93852L13.5355 12.8284L12.8284 13.5354L9.49981 10.2059L9.49998 5.5H10.5Z" stroke="white"/>
</svg>
